<svg id="Layer_1" data-name="Layer 1" xmlns="http://www.w3.org/2000/svg" viewBox="0 0 417.58 417.58"><defs><style>.cls-1,.cls-2{fill:#fff;}.cls-2{stroke:#00aeef;stroke-miterlimit:3.86;stroke-width:12px;}</style></defs><path class="cls-1" d="M397.64,102.36A208.79,208.79,0,0,0,41.21,250c0,115.31,93.48,208.79,208.79,208.79A208.79,208.79,0,0,0,397.64,102.36ZM388,388A195.19,195.19,0,0,1,54.81,250C54.81,142.37,142.37,54.81,250,54.81A195.1,195.1,0,0,1,388,388Z" transform="translate(-41.21 -41.21)"/><path class="cls-1" d="M114.44,253.05a1.32,1.32,0,0,0,.09-.48c0-1-.91-2.51-3.87-2.51l-10-.1-9.8-.11h0c-.37,0-9.24-.07-12.18-6.46s2.6-14,12.53-14.27c1.83-.06,4.09-.09,6.55-.12s5.14,0,7.8,0c9.11,0,18.07.11,18.07.11L116.72,238l-24.48,0h-.15c-.48,0-1.9.09-2.13,1.15a1.24,1.24,0,0,0,1.17,1.71h1.8c4.62,0,16.79,0,16.79,0h.38c1.69,0,8.62.31,12.23,5.14a11.42,11.42,0,0,1,2.3,6.74c0,4.44-2.9,8.92-10.27,10.72-3,.86-17.42.46-17.42.46H77.8l7-8.9,25.87-.2a8.73,8.73,0,0,0,1.6-.29A3.46,3.46,0,0,0,114.44,253.05Z" transform="translate(-41.21 -41.21)"/><polygon class="cls-1" points="96.13 222.71 85.21 222.71 85.21 187.91 96.04 187.91 96.04 199.94 112.5 187.87 128.6 187.87 104.35 205.44 128.82 222.66 112.58 222.66 96.13 210.99 96.13 222.71"/><polygon class="cls-1" points="182.56 187.89 161.97 211.27 161.97 222.78 150.99 222.76 150.98 211.06 129.79 187.92 143.55 187.92 156.56 202.01 168.71 187.89 182.56 187.89"/><path class="cls-1" d="M287.79,229c2.32,0,16.82.57,16.82,12.67a17.4,17.4,0,0,1-.26,2.94,7.8,7.8,0,0,1-1.15,2.9,12.39,12.39,0,0,1-2,2.42,26.51,26.51,0,0,1-4.93,3.52l11.87,10.44H292.87l-10.5-8.69h-15v8.69h-10.8l-.08-18s13.83,0,23.53,0l8.66,0c3.29,0,4.84-2.49,4.84-3.85a1.09,1.09,0,0,0,0-.18c0-1.48-1.84-3.6-5.09-3.6H248.84v25.78H237.61v-26H223.54l0,0,6.71-9Z" transform="translate(-41.21 -41.21)"/><path class="cls-1" d="M264,343.48a27.46,27.46,0,0,1-41.3-12.64H180.27a3.58,3.58,0,0,1-3.07-1.44,2.74,2.74,0,0,1-.48-1.33c-.2-3.34,3.73-3.35,3.73-3.35l40.64-.08c-.11-.81-.18-1.62-.22-2.45H172.72a3.58,3.58,0,0,1-3.07-1.45,2.74,2.74,0,0,1-.48-1.33c-.2-3.34,3.73-3.35,3.73-3.35l48.39-.09c.17-.9.38-1.79.63-2.66H165.09a3.6,3.6,0,0,1-3.07-1.44,2.78,2.78,0,0,1-.47-1.33c-.2-3.35,3.72-3.36,3.72-3.36l59.33-.11a27.45,27.45,0,0,1,47.4,0l58.84.11s3.74,0,3.74,3.12c0,.08,0,.16,0,.24s-.08,2.63-3.55,2.77H274.68c.25.87.46,1.76.63,2.66l47.91.09s3.73,0,3.73,3.11c0,.08,0,.16,0,.24s-.08,2.63-3.54,2.78H275.73c0,.83-.11,1.64-.22,2.45l40.16.08s3.73,0,3.73,3.1a2.18,2.18,0,0,1,0,.25s-.08,2.63-3.54,2.77H273.91A27.59,27.59,0,0,1,264,343.48Z" transform="translate(-41.21 -41.21)"/><path class="cls-1" d="M309.66,264l20.11-28.21a23.69,23.69,0,0,1,2.65-3.36c1.6-1.68,3.76-3.36,6-3.36h.3c4.63,0,8.11,5.15,8.11,5.15L367.32,264H326.66l6.4-9.08h14.49l-8.9-12.48L323,264H309.66Z" transform="translate(-41.21 -41.21)"/><polygon class="cls-1" points="362.87 205.6 379.07 222.71 365.48 222.71 353.77 210.3 341.8 222.67 328.25 222.67 344.47 205.57 327.1 187.91 341.19 187.82 353.77 200.81 366.05 187.89 379.91 187.89 362.87 205.6"/><path class="cls-1" d="M334.58,310.3c0,.08,0,.16,0,.24s-.08,2.63-3.55,2.77H274.68c.25.87.46,1.76.63,2.66l47.91.09s3.73,0,3.73,3.11c0,.08,0,.16,0,.24s-.08,2.63-3.54,2.78H275.73c0,.83-.11,1.64-.22,2.45l40.16.08s3.73,0,3.73,3.1a2.18,2.18,0,0,1,0,.25s-.08,2.63-3.54,2.77H273.91a27.46,27.46,0,0,1-51.22,0H180.27a3.58,3.58,0,0,1-3.07-1.44,2.74,2.74,0,0,1-.48-1.33c-.2-3.34,3.73-3.35,3.73-3.35l40.64-.08c-.11-.81-.18-1.62-.22-2.45H172.72a3.58,3.58,0,0,1-3.07-1.45,2.74,2.74,0,0,1-.48-1.33c-.2-3.34,3.73-3.35,3.73-3.35l48.39-.09c.17-.9.38-1.79.63-2.66H165.09a3.6,3.6,0,0,1-3.07-1.44,2.78,2.78,0,0,1-.47-1.33c-.2-3.35,3.72-3.36,3.72-3.36l59.33-.11a27.45,27.45,0,0,1,47.4,0l58.84.11S334.58,307.19,334.58,310.3Z" transform="translate(-41.21 -41.21)"/><path class="cls-2" d="M247,249.57" transform="translate(-41.21 -41.21)"/><path class="cls-2" d="M246.2,250.32" transform="translate(-41.21 -41.21)"/><polygon class="cls-1" points="164.48 129.33 157.13 151.82 156.89 152.57 150.08 152.57 144.42 134.67 144.18 133.91 139.04 149.21 138.16 151.82 137.91 152.57 131.36 152.57 124.13 129.33 129.52 129.33 134.98 147.89 135.5 146.34 141.17 129.33 147.47 129.33 153.7 147.89 154.17 146.32 159.31 129.33 164.48 129.33"/><rect class="cls-1" x="168.03" y="129.33" width="5.33" height="23.24"/><polygon class="cls-1" points="203.37 129.33 203.37 152.57 195.91 152.57 185.56 136.14 184.81 134.95 184.81 152.57 179.93 152.57 179.93 129.33 187.16 129.33 198.46 147.21 198.46 129.33 203.37 129.33"/><polygon class="cls-1" points="233.25 129.33 233.25 152.57 225.79 152.57 215.44 136.14 214.69 134.95 214.69 152.57 209.82 152.57 209.82 129.33 217.05 129.33 228.35 147.21 228.35 129.33 233.25 129.33"/><polygon class="cls-1" points="258.75 148.95 258.75 152.57 239.77 152.57 239.77 129.33 258.3 129.33 258.3 132.85 244.87 132.85 244.87 138.59 257.2 138.59 257.2 142.14 244.87 142.14 244.87 148.95 258.75 148.95"/><path class="cls-1" d="M325.64,193a13.6,13.6,0,0,1-.7-2.74l-.61-3.1c-.65-3.26-1.17-4.58-4.42-4.77a11.5,11.5,0,0,0,2-.59,5.72,5.72,0,0,0,2.43-1.71,5.3,5.3,0,0,0,1-3.38,5.62,5.62,0,0,0-2.45-4.94c-1.78-1.13-4.13-1.26-7.39-1.26H304.44v23.24h5.17V183.9h4c3.52,0,4.71.39,5.23,3l.74,3.78a11.81,11.81,0,0,0,.93,3.1h5.59A3.48,3.48,0,0,1,325.64,193Zm-16-12.71v-6.17h3.87c4.52,0,6.78.2,6.78,3.1a3,3,0,0,1-.36,1.55c-.79,1.35-2.92,1.52-6.35,1.52Z" transform="translate(-41.21 -41.21)"/><path class="cls-1" d="M124.63,252.74c0,4.44-2.9,8.92-10.27,10.72-3,.86-17.42.46-17.42.46H77.8l7-8.9,25.87-.2a8.73,8.73,0,0,0,1.6-.29,3.46,3.46,0,0,0,2.19-1.48,1.32,1.32,0,0,0,.09-.48c0-1-.91-2.51-3.87-2.51l-10-.1-9.8-.11h0c-.37,0-9.24-.07-12.18-6.46s2.6-14,12.53-14.27c1.83-.06,4.09-.09,6.55-.12s5.14,0,7.8,0c9.11,0,18.07.11,18.07.11L116.72,238l-24.48,0h-.15c-.48,0-1.9.09-2.13,1.15a1.24,1.24,0,0,0,1.17,1.71h1.8c4.62,0,16.79,0,16.79,0h.38c1.69,0,8.62.31,12.23,5.14A11.42,11.42,0,0,1,124.63,252.74Z" transform="translate(-41.21 -41.21)"/><polygon class="cls-1" points="128.82 222.66 112.58 222.66 96.13 210.99 96.13 222.71 85.21 222.71 85.21 187.91 96.04 187.91 96.04 199.94 112.5 187.87 128.6 187.87 104.35 205.44 128.82 222.66"/><polygon class="cls-1" points="182.56 187.89 161.97 211.27 161.97 222.78 150.99 222.76 150.98 211.06 129.79 187.92 143.55 187.92 156.56 202.01 168.71 187.89 182.56 187.89"/><path class="cls-1" d="M308.1,263.92H292.87l-10.5-8.69h-15v8.69h-10.8l-.08-18s13.83,0,23.53,0l8.66,0c3.29,0,4.84-2.49,4.84-3.85a1.09,1.09,0,0,0,0-.18c0-1.48-1.84-3.6-5.09-3.6H248.84v25.78H237.61v-26H223.54l0,0,6.71-9h57.51c2.32,0,16.82.57,16.82,12.67a17.4,17.4,0,0,1-.26,2.94,7.8,7.8,0,0,1-1.15,2.9,12.39,12.39,0,0,1-2,2.42,26.51,26.51,0,0,1-4.93,3.52Z" transform="translate(-41.21 -41.21)"/><path class="cls-1" d="M333.06,254.93h14.49l-8.9-12.48L323,264H309.66l20.11-28.21a23.69,23.69,0,0,1,2.65-3.36c1.6-1.68,3.76-3.36,6-3.36h.3c4.63,0,8.11,5.15,8.11,5.15L367.32,264H326.66Z" transform="translate(-41.21 -41.21)"/><polygon class="cls-1" points="362.87 205.6 379.07 222.71 365.48 222.71 353.77 210.3 341.8 222.67 328.25 222.67 344.47 205.57 327.1 187.91 341.19 187.82 353.77 200.81 366.05 187.89 379.91 187.89 362.87 205.6"/><path class="cls-1" d="M118.75,308.54l-1.4.21-31.89,4.81,1.89,3.89.12.24,6.62-1.17,1.38-.25,5,10.23-6.08,5.34,1.57,3.22.47.95L121,313.11Zm-19.41,7,14.19-2.31,1.82-.29-12,10.86-.46-.94Z" transform="translate(-41.21 -41.21)"/><path class="cls-1" d="M267.12,424.69a15.2,15.2,0,0,1-2.22.05h0c-4.75-.25-7.39-2.92-7.84-8,0-.31,0-.63,0-1l3.18-.28,1.49-.13c0,.18,0,.4.05.58.29,3.43,1.45,5.17,3.82,5.44a7.22,7.22,0,0,0,1.4,0c3.16-.27,5.2-2.56,4.95-5.36-.27-3.07-3.14-4.2-7.88-6.65-5-2.61-7.58-4.18-8-8.76-.43-4.79,3-8.5,8.74-9l.59,0c5.42-.27,8.63,2.43,9.08,7.66,0,.26.05.53.07.8l-4.4.38s0-.09,0-.13,0-.35,0-.53c-.29-3.43-2.05-5.06-5.16-4.79l-.14,0c-2.9.31-4.67,2.41-4.46,4.77.31,3.51,3.5,4.71,8.91,7.6,4.32,2.3,6.61,3.94,6.94,7.68C276.62,420.59,273.39,424.15,267.12,424.69Z" transform="translate(-41.21 -41.21)"/><path class="cls-1" d="M151.47,356.75l-28.82,13.86-1.07.51-3.24-3.87,12.38-16.55a56.7,56.7,0,0,1,3.71-4.46h0c.63-.69,1.3-1.41,2-2.16a57.06,57.06,0,0,1-7.73,4.33l-17.45,8.66-1,.52-3.3-3.93L126.52,327l.79,1,2,2.33L114.2,350.11a49.1,49.1,0,0,1-3.37,3.82c1.29-.74,2.32-1.3,3.07-1.7h0l1.31-.7,22.42-11.24.44.53,2.43,2.89-14.83,19.66a40.7,40.7,0,0,1-3.55,4c1-.64,2.1-1.25,3.23-1.83.43-.23.86-.46,1.3-.68l22.14-11.3.45.53Z" transform="translate(-41.21 -41.21)"/><path class="cls-1" d="M167.13,367l-.79-.55L139.66,387l3.76,2.63.69-.56,5.62-4.56.8.56,8.52,6-2.72,7.62,3.8,2.66.28-.85,10.1-31.09Zm-6.53,19.43-.29.85L152.78,382l12.75-10-.55,1.6" transform="translate(-41.21 -41.21)"/><path class="cls-1" d="M197.27,382.75l-6.57-2.52-1.3-.5-11.51,30,4,1.51.19-.5,5.07-13.2,1.31.5,3.44,1.32c2.67,1,3,2.64,1.89,5.79-1.22,3.55-2.65,6.54-2.86,9.56l4.08,1.57.06-.56a24.27,24.27,0,0,1,1.5-5.87c.34-.87.76-1.85,1.21-3,1.55-4,1.23-6.32-2-8a10.15,10.15,0,0,0,1.55,0h.16c3-.25,5-2,6.27-5.37C205.62,388.39,203.56,385.16,197.27,382.75Zm-8.92,11.53,3.81-9.91,1.3.5,3.15,1.21c3.13,1.2,4.09,3.29,2.91,6.37-.88,2.3-2.16,3.48-3.94,3.71h0a8.94,8.94,0,0,1-4.3-.76Z" transform="translate(-41.21 -41.21)"/><path class="cls-1" d="M237.44,394.52c-1.95-2.44-4.81-2.93-8.87-3.5l-6.18-.86-1.47-.21-4.47,31.81,7.64,1.07a27.23,27.23,0,0,0,5.21.39,7.38,7.38,0,0,0,5.52-2.62c2-2.24,2.79-6.1,3.57-11.62C239.37,402,239.9,397.57,237.44,394.52ZM224.68,394l1.46.21,3,.42c3.4.47,5.2,1.49,5.82,4.42.18.7.11,3.71-.6,8.79s-1.47,8.53-2.73,10.11a4.25,4.25,0,0,1-3.21,1.55,12.26,12.26,0,0,1-2.76-.13l-4.46-.63Z" transform="translate(-41.21 -41.21)"/><path class="cls-1" d="M360.94,367l-.5-.62-.51-.63c-3.59-4.43-6.13-7.49-9.12-8.28a6,6,0,0,0-1.18-.21,8.21,8.21,0,0,0-6.09,2.08,8.08,8.08,0,0,0-3.35,6.78c.18,3.19,2.79,6.42,6.69,11.24s6.51,8,9.6,8.87a7.34,7.34,0,0,0,2.63.2,8.91,8.91,0,0,0,4.67-2.1,7.89,7.89,0,0,0,3.34-6.72C367,374.49,364.53,371.41,360.94,367Zm-11,7.86c-5.47-6.76-7.84-9.9-4.27-12.79a3.79,3.79,0,0,1,3.38-1c2.21.52,4.59,3.32,8.25,7.84,5.5,6.8,7.8,9.93,4.27,12.79a4.71,4.71,0,0,1-1.89,1C357,383.33,354.43,380.35,350,374.83Z" transform="translate(-41.21 -41.21)"/><path class="cls-1" d="M409.37,325.42,408,328l-.49.94-22.12-11.6-1.19-.62a31.27,31.27,0,0,1,.64,4.36c0,.4.09.83.13,1.28l-3.8-2a36.41,36.41,0,0,0-.77-6.7l1.43-2.73.43.23Z" transform="translate(-41.21 -41.21)"/><path class="cls-1" d="M147.84,136.29l5.62-15.76,5.12,15.76Zm-12.4,14.09h7.49l2.89-8h14.72l2.63,8h8.11l-13-37.18h-9.4Z" transform="translate(-41.21 -41.21)"/><rect class="cls-1" x="137.99" y="71.99" width="7.9" height="37.18"/><path class="cls-1" d="M198.36,150.38h7.8v-15H213c4.18,0,4.44.46,4.85,4.8l.52,5.63a12.09,12.09,0,0,0,1,4.54h8.63c-1-1.39-1.55-3.46-1.91-6.24l-.67-5.38c-.57-4.59-2-6.55-6.3-7,5.06-1.19,7.23-3.92,7.23-9.19,0-6.51-4.08-9.35-12.6-9.35H198.36Zm7.8-21V118.93h4.7c5.32,0,7.7.78,7.7,5.32,0,4.14-2.33,5.12-7.7,5.12Z" transform="translate(-41.21 -41.21)"/><polygon class="cls-1" points="195.36 109.17 220.04 109.17 220.04 102.87 203.26 102.87 203.26 71.99 195.36 71.99 195.36 109.17"/><rect class="cls-1" x="228.8" y="71.99" width="7.9" height="37.18"/><polygon class="cls-1" points="247.97 109.17 255.1 109.17 255.1 78.4 269.56 109.17 280.56 109.17 280.56 71.99 273.43 71.99 273.43 101.89 259.43 71.99 247.97 71.99 247.97 109.17"/><polygon class="cls-1" points="291.87 109.17 317.13 109.17 317.13 102.98 299.93 102.98 299.93 92.96 315.52 92.96 315.52 86.92 299.93 86.92 299.93 78.14 316.56 78.14 316.56 71.99 291.87 71.99 291.87 109.17"/><path class="cls-1" d="M339.54,400.6,326,407.82l-1.16.62-1.86-3.51,2-16.53c.41-3.51,0-6.13-.65-7.39a3.65,3.65,0,0,0-2.49-2,4.1,4.1,0,0,0-2.85.48c-2.37,1.26-2.62,3.16-1.12,6.36l-2.69,1.43-1.13.6c-.13-.24-.31-.49-.44-.73-2.28-4.29-.9-8.06,4-10.63a9.43,9.43,0,0,1,5.36-1.27,6.33,6.33,0,0,1,4.94,3.62c1.42,2.68,1.73,6.51,1.08,11.55L327.24,403l1.61-.85,8.95-4.77.33.62Z" transform="translate(-41.21 -41.21)"/><path class="cls-1" d="M395.82,349.56l-9,12.47-.76,1.07-3.22-2.33-5.49-15.72c-1.18-3.33-2.69-5.51-3.85-6.34a3.62,3.62,0,0,0-3.11-.69,4,4,0,0,0-2.34,1.69c-1.57,2.18-1,4,1.8,6.2l-1.78,2.47-.75,1c-.22-.16-.49-.3-.72-.46-3.94-2.84-4.36-6.84-1.15-11.28a9.45,9.45,0,0,1,4.25-3.51,6.33,6.33,0,0,1,6,1.07c2.46,1.77,4.43,5.07,6.07,9.88l4,12,1.07-1.48,5.93-8.23.56.41Z" transform="translate(-41.21 -41.21)"/></svg>